
<svg id="svg" version="1.0" xmlns="http://www.w3.org/2000/svg"
 width="25" height="25" viewBox="0 0 25.000000 25.000000"
 preserveAspectRatio="xMidYMid meet">

<g transform="translate(-0.100000,25.000000) scale(0.0500000,-0.0500000)"
 stroke="none">
<path d="M160 425 c0 -19 5 -35 10 -35 6 0 10 16 10 35 0 19 -4 35 -10 35 -5
0 -10 -16 -10 -35z"/>
<path d="M50 402 c0 -14 39 -46 47 -39 3 4 -2 16 -12 27 -19 21 -35 26 -35 12z"/>
<path d="M255 390 c-10 -11 -15 -23 -12 -27 8 -7 47 25 47 39 0 14 -16 9 -35
-12z"/>
<path d="M115 345 c-30 -29 -33 -73 -7 -105 16 -20 21 -21 40 -9 11 7 24 25
27 39 4 14 18 37 32 52 25 26 25 26 5 37 -34 18 -71 13 -97 -14z"/>
<path d="M241 326 c-24 -14 -50 -51 -51 -74 0 -7 -13 -25 -30 -39 -37 -31 -40
-70 -7 -101 22 -20 34 -22 156 -22 l133 0 29 29 c20 20 29 39 29 61 0 42 -47
90 -89 90 -21 0 -32 6 -36 20 -8 24 -54 50 -87 50 -13 -1 -34 -7 -47 -14z"/>
<path d="M0 290 c0 -5 16 -10 35 -10 19 0 35 5 35 10 0 6 -16 10 -35 10 -19 0
-35 -4 -35 -10z"/>
<path d="M65 200 c-10 -11 -15 -23 -12 -27 8 -7 47 25 47 39 0 14 -16 9 -35
-12z"/>
</g>
</svg>
