
<svg id="svg" version="1.0" xmlns="http://www.w3.org/2000/svg"
 width="18" height="16" viewBox="0 0 16 16"
 preserveAspectRatio="xMidYMid meet">

<g transform="translate(-3.900000,28) scale(0.0500000,-0.0500000)" stroke="none">
<path d="M87 543 c-9 -8 -9 -176 -1 -197 5 -13 25 -16 115 -16 l109 0 0 110 0
110 -108 0 c-60 0 -112 -3 -115 -7z m193 -103 l0 -80 -80 0 -80 0 0 80 0 80
80 0 80 0 0 -80z"/>
<path d="M354 517 c-3 -8 -4 -47 -2 -88 l3 -74 85 0 85 0 3 88 3 87 -86 0
c-62 0 -87 -4 -91 -13z m146 -77 l0 -61 -57 3 -58 3 -3 58 -3 57 61 0 60 0 0
-60z"/>
<path d="M330 201 c0 -90 3 -110 16 -115 29 -11 189 -7 202 6 13 13 17 173 6
202 -5 13 -25 16 -115 16 l-109 0 0 -109z m190 -6 l0 -85 -80 0 -80 0 0 85 0
85 80 0 80 0 0 -85z"/>
<path d="M117 284 c-4 -4 -7 -45 -7 -91 l0 -84 88 3 87 3 0 85 0 85 -80 3
c-45 1 -84 0 -88 -4z m141 -86 l3 -58 -61 0 -60 0 0 60 0 61 58 -3 57 -3 3
-57z"/>
</g>
</svg>
