
<svg id="svg" version="1.0" xmlns="http://www.w3.org/2000/svg"
 width="32" height="32" viewBox="0 0 32 32"
 preserveAspectRatio="xMidYMid meet">

<g transform="translate(-4.000000,32.000000) scale(0.050000,-0.050000)"
stroke="none">
<path d="M225 596 c-60 -28 -87 -56 -114 -116 -36 -79 -19 -183 42 -249 33
-36 115 -71 167 -71 52 0 134 35 167 71 34 37 63 110 63 159 0 52 -35 134 -71
167 -37 34 -110 63 -159 63 -27 0 -65 -10 -95 -24z m205 -40 c59 -39 85 -89
85 -166 0 -78 -26 -127 -88 -168 -52 -35 -142 -38 -202 -6 -80 42 -120 140
-96 232 14 51 75 117 123 131 53 16 135 6 178 -23z"/>
<path d="M276 484 c-20 -20 -20 -68 0 -88 8 -9 28 -16 44 -16 16 0 36 7 44 16
20 20 20 68 0 88 -20 20 -68 20 -88 0z m69 -44 c0 -18 -6 -26 -23 -28 -24 -4
-38 18 -28 44 3 9 15 14 28 12 17 -2 23 -10 23 -28z"/>
<path d="M246 325 c-14 -13 -26 -29 -26 -35 0 -17 26 -11 45 10 27 29 85 27
115 -5 22 -23 40 -25 40 -4 0 6 -12 21 -26 34 -38 35 -110 35 -148 0z"/>
<path d="M163 98 c5 -18 309 -18 315 0 3 9 -33 12 -158 12 -125 0 -161 -3
-157 -12z"/>
<path d="M210 25 c0 -12 13 -15 60 -15 47 0 60 3 60 15 0 12 -13 15 -60 15
-47 0 -60 -3 -60 -15z"/>
<path d="M380 25 c0 -9 9 -15 25 -15 16 0 25 6 25 15 0 9 -9 15 -25 15 -16 0
-25 -6 -25 -15z"/>
</g>
</svg>
