
<svg id="svg" version="1.0" xmlns="http://www.w3.org/2000/svg"
 width="20" height="26" viewBox="0 0 20 26"
 preserveAspectRatio="xMidYMid meet">

<g transform="translate(-1.000000,26.000000) scale(0.0500000,-0.050000)"
 stroke="none">
<path d="M286 604 c-9 -8 -16 -26 -16 -40 0 -17 -8 -27 -26 -34 -14 -6 -24
-16 -21 -23 2 -8 31 -12 97 -12 66 0 95 4 97 12 3 7 -7 17 -21 23 -18 6 -26
17 -26 33 0 27 -28 57 -53 57 -8 0 -23 -7 -31 -16z"/>
<path d="M127 523 c-4 -3 -7 -115 -7 -249 0 -211 2 -243 16 -248 23 -9 357 -7
372 2 9 7 12 64 10 253 l-3 244 -44 3 c-32 2 -42 0 -39 -10 3 -7 15 -15 29
-18 l24 -6 3 -208 c2 -145 -1 -213 -9 -222 -17 -20 -301 -20 -318 0 -8 9 -11
77 -9 222 l3 208 24 6 c42 10 37 30 -6 30 -22 0 -43 -3 -46 -7z"/>
<path d="M175 420 c-3 -5 -1 -10 4 -10 6 0 11 -16 11 -35 0 -19 5 -35 10 -35
6 0 10 16 10 35 0 19 5 35 11 35 6 0 8 -7 5 -16 -10 -27 12 -56 42 -52 22 2
28 9 30 35 4 37 -28 63 -53 43 -9 -7 -15 -8 -20 0 -8 13 -42 13 -50 0z m112
-26 c7 -19 -20 -49 -36 -40 -12 8 -15 39 -4 49 12 12 33 7 40 -9z"/>
<path d="M327 423 c-4 -3 -7 -24 -7 -45 0 -37 2 -39 28 -36 22 2 28 9 30 33 4
35 -31 69 -51 48z m40 -29 c3 -8 -2 -23 -11 -32 -15 -15 -16 -14 -16 16 0 33
16 43 27 16z"/>
<path d="M406 417 c-38 -27 2 -96 42 -71 24 16 27 42 6 65 -20 23 -25 23 -48
6z m42 -31 c2 -10 -1 -23 -7 -29 -16 -16 -44 14 -35 37 8 22 38 17 42 -8z"/>
<path d="M240 280 c0 -6 40 -10 100 -10 60 0 100 4 100 10 0 6 -40 10 -100 10
-60 0 -100 -4 -100 -10z"/>
<path d="M235 220 c-4 -6 33 -10 105 -10 72 0 109 4 105 10 -3 6 -50 10 -105
10 -55 0 -102 -4 -105 -10z"/>
<path d="M282 153 c32 -2 84 -2 115 0 32 2 6 3 -57 3 -63 0 -89 -1 -58 -3z"/>
<path d="M282 93 c32 -2 84 -2 115 0 32 2 6 3 -57 3 -63 0 -89 -1 -58 -3z"/>
</g>
</svg>
